<?xml version="1.0" encoding="utf-8"?>
<!-- Generator: Adobe Illustrator 26.4.1, SVG Export Plug-In . SVG Version: 6.00 Build 0)  -->
<svg version="1.1" id="Capa_1" xmlns="http://www.w3.org/2000/svg" xmlns:xlink="http://www.w3.org/1999/xlink" x="0px" y="0px"
	 viewBox="0 0 170.3 170.4" style="enable-background:new 0 0 170.3 170.4;" xml:space="preserve">
<g>
	<path d="M13.4,39.2l-0.7,1.2h34.1L47,40c8-14.8,19.5-28.5,32.4-38.4l2-1.5l-2.5,0.2C52.3,2.1,27.8,16.7,13.4,39.2z"/>
	<path d="M47,130.5l-0.2-0.4H12.6l0.7,1.2c14.4,22.5,38.9,37.1,65.4,39l2.5,0.2l-2-1.5C66.4,158.9,55,145.3,47,130.5z"/>
	<path d="M123.5,130.5c-8,14.8-19.5,28.5-32.4,38.4l-2,1.5l2.5-0.2c26.5-2,50.9-16.6,65.2-39l0.7-1.2h-33.9L123.5,130.5z"/>
	<path d="M123.5,40l0.2,0.4h33.9l-0.7-1.2c-14.4-22.4-38.8-37-65.2-39L89.2,0l2,1.5C104,11.5,115.5,25.1,123.5,40z"/>
	<path d="M128.6,50.6c4.1,9.9,6.5,19.9,7.1,29.6l0,0.7h34.6l0-0.8c-0.6-10.5-3.1-20.6-7.5-30.1l-0.2-0.4h-34.5L128.6,50.6z"/>
	<path d="M135.7,90.3c-0.6,9.7-3,19.7-7.1,29.6l-0.4,1h34.5l0.2-0.4c4.3-9.5,6.8-19.6,7.5-30.1l0-0.8h-34.6L135.7,90.3z"/>
	<path d="M41.9,119.9c-4.1-9.9-6.5-19.9-7.1-29.6l0-0.7H0l0,0.8c0.6,10.5,3.1,20.6,7.5,30.1l0.2,0.4h34.6L41.9,119.9z"/>
	<path d="M34.8,80.2c0.6-9.7,3-19.7,7.1-29.6l0.4-1H7.7L7.5,50C3.2,59.5,0.7,69.6,0,80.1l0,0.8h34.8L34.8,80.2z"/>
	<path d="M80.8,15.3L79.7,16c-7.5,4.8-15,13-21.1,23.2l-0.7,1.1h22.9V15.3z"/>
	<path d="M90.7,16l-1.2-0.7v25.1h22.9l-0.7-1.1C105.6,29,98.2,20.8,90.7,16z"/>
	<path d="M125,80.1c-0.7-9.9-3.3-20.3-7.6-30.1l-0.2-0.5H89.5v31.4H125L125,80.1z"/>
	<path d="M53,50c-4.3,9.8-7,20.2-7.6,30.1l-0.1,0.8h35.5V49.5H53.2L53,50z"/>
	<path d="M45.3,90.4c0.7,9.9,3.3,20.3,7.6,30.1l0.2,0.5h27.7V89.6H45.3L45.3,90.4z"/>
	<path d="M117.4,120.5c4.3-9.8,7-20.2,7.6-30.1l0.1-0.8H89.5v31.3h27.7L117.4,120.5z"/>
	<path d="M89.5,155.2l1.2-0.7c7.5-4.8,15-13,21.1-23.2l0.7-1.1H89.5V155.2z"/>
	<path d="M79.7,154.4l1.2,0.7v-25.1H57.9l0.7,1.1C64.7,141.4,72.2,149.6,79.7,154.4z"/>
</g>
</svg>
