<?xml version="1.0" encoding="utf-8"?>
<!-- Generator: Adobe Illustrator 26.4.1, SVG Export Plug-In . SVG Version: 6.00 Build 0)  -->
<svg version="1.1" id="Capa_1" xmlns="http://www.w3.org/2000/svg" xmlns:xlink="http://www.w3.org/1999/xlink" x="0px" y="0px"
	 viewBox="0 0 200 176.9" style="enable-background:new 0 0 200 176.9;" xml:space="preserve">
<style type="text/css">
	.st0{fill:#FFFFFF;}
</style>
<path class="st0" d="M186.1,74.6H47.3l50.9-50.9c5.4-5.4,5.4-14.2,0-19.6h0c-5.4-5.4-14.2-5.4-19.6,0L4.1,78.6c0,0,0,0,0,0
	c-0.3,0.3-0.6,0.6-0.9,1C3,79.8,2.9,80,2.8,80.1c-0.1,0.2-0.3,0.4-0.4,0.6c-0.1,0.2-0.2,0.4-0.4,0.6c-0.1,0.2-0.2,0.4-0.3,0.6
	c-0.1,0.2-0.2,0.4-0.3,0.6c-0.1,0.2-0.2,0.4-0.3,0.6c-0.1,0.2-0.2,0.4-0.2,0.6c-0.1,0.2-0.2,0.4-0.2,0.7c-0.1,0.2-0.1,0.4-0.2,0.6
	c-0.1,0.2-0.1,0.5-0.2,0.7c0,0.2-0.1,0.5-0.1,0.7c0,0.2-0.1,0.4-0.1,0.6C0,87.5,0,88,0,88.4v0c0,0,0,0,0,0c0,0.5,0,0.9,0.1,1.4
	c0,0.2,0.1,0.4,0.1,0.6c0,0.2,0.1,0.5,0.1,0.7c0,0.2,0.1,0.5,0.2,0.7c0.1,0.2,0.1,0.4,0.2,0.6c0.1,0.2,0.2,0.4,0.2,0.7
	c0.1,0.2,0.1,0.4,0.2,0.6c0.1,0.2,0.2,0.4,0.3,0.6c0.1,0.2,0.2,0.4,0.3,0.6c0.1,0.2,0.2,0.4,0.3,0.6c0.1,0.2,0.2,0.4,0.4,0.6
	c0.1,0.2,0.3,0.4,0.4,0.6C2.9,96.9,3,97,3.1,97.2c0.3,0.3,0.6,0.7,0.9,1c0,0,0,0,0,0l74.6,74.6c5.4,5.4,14.2,5.4,19.6,0h0
	c5.4-5.4,5.4-14.2,0-19.6l-50.9-50.9h138.8c7.7,0,13.9-6.2,13.9-13.9v0C200,80.8,193.8,74.6,186.1,74.6z"/>
</svg>
