<?xml version="1.0" encoding="UTF-8"?>
<svg id="nesquick_Imagen" data-name="nesquick Imagen" xmlns="http://www.w3.org/2000/svg" viewBox="0 0 409.79 107.87">
  <defs>
    <style>
      .cls-1 {
        fill: #e50914;
      }
    </style>
  </defs>
  <path class="cls-1" d="M36.5,60.83V1.79h16.11V100.92c-2.82,.39-5.69,.83-8.58,1.18-2.38,.29-4.8,.36-7.16,.77-1.59,.27-2.17-.3-2.64-1.69-5.74-17.27-11.52-34.53-17.31-51.78-.07-.2-.26-.35-.71-.93v56.87c-5.51,.78-10.76,1.52-16.21,2.29V1.78H15.04c6.94,19.64,13.92,39.41,20.91,59.19,.18-.05,.37-.09,.55-.14Z"/>
  <path class="cls-1" d="M355.19,1.8h16.37c0,7.06,0,14,0,20.93s0,13.69,0,20.54c.22,.04,.45,.09,.67,.13,1.79-3.46,3.65-6.9,5.37-10.39,4.9-9.91,9.74-19.85,14.66-29.76,.32-.65,1.08-1.52,1.66-1.54,5.08-.12,10.17-.07,15.7-.07-2.18,4.25-4.17,8.15-6.19,12.04-4.32,8.3-8.69,16.58-12.93,24.92-.42,.83-.4,2.1-.13,3.03,6.27,21.35,12.61,42.68,18.93,64.02,.19,.64,.29,1.3,.49,2.23-5.6-.67-10.97-1.27-16.32-2.03-.54-.08-1.15-1.11-1.36-1.81-4.31-14.28-8.56-28.58-12.83-42.87-.22-.72-.49-1.43-1.01-2.2-2.28,5.47-7.03,9.7-6.66,16.45,.46,8.33,.13,16.7,.15,25.05,0,.84,0,1.67,0,2.73-5.62-.74-10.96-1.44-16.57-2.18V1.8Z"/>
  <path class="cls-1" d="M254.62,1.74h16.61c0,1.02,0,2,0,2.98,.03,22.26,.05,44.52,.08,66.78,0,.85-.01,1.7,.01,2.55,.19,7.01,4.36,10.39,11.32,9.19,3.11-.53,5.12-2.59,5.6-5.97,.23-1.6,.22-3.24,.22-4.86-.04-22.57-.1-45.14-.16-67.71,0-.92,0-1.83,0-2.91h16.1c0,.91,0,1.74,0,2.56,.03,22.96,.08,45.91,.09,68.87,0,2-.1,4.02-.37,6.01-1.4,10.19-7.87,16.42-18.15,17.36-4.96,.45-9.89,.19-14.74-1.21-10.04-2.91-16.25-10.6-16.48-21.04-.21-9.58-.09-19.17-.1-28.75-.02-13.6-.03-27.21-.04-40.81,0-.92,0-1.85,0-3.04Z"/>
  <path class="cls-1" d="M68.81,1.73h44.99V18.15h-28.73v22.16h21.59v16.51h-21.6v24.95c9.58-.61,19.04-1.2,28.89-1.83,0,3.25,0,6.23,0,9.21,0,1.62-.09,3.25,.03,4.87,.11,1.47-.38,2.02-1.9,2.14-13.68,1.04-27.34,2.15-41.02,3.23-.69,.05-1.39,0-2.25,0V1.73Z"/>
  <path class="cls-1" d="M159.28,27.1c0-2.26,.14-4.35-.03-6.41-.42-4.95-3.29-7.43-8.35-7.4-5.03,.03-7.87,2.59-8.35,7.47-.47,4.84,.9,9.16,4.35,12.51,3.65,3.55,7.74,6.65,11.53,10.06,3.73,3.36,7.78,6.51,10.89,10.38,6.88,8.57,7.59,18.38,4.03,28.5-2.12,6.04-6.78,9.72-12.8,11.56-6.39,1.95-12.94,2.43-19.53,1.19-9.21-1.74-14.57-8.16-15.48-18.57-.24-2.68-.04-5.4-.04-8.54h15.66c0,1.93-.04,4.07,0,6.21,.11,5.48,2.73,8.24,7.83,8.32,5.97,.09,9.16-2.65,9.55-8.08,.41-5.66-1.2-10.64-5.33-14.52-3.37-3.18-7.18-5.89-10.62-8.99-3.84-3.46-7.94-6.78-11.15-10.78-6.43-8.02-7.23-17.28-3.83-26.76,2.97-8.28,9.64-12.14,18.04-12.81,4.5-.36,9.17-.13,13.61,.67,8.14,1.47,13.11,6.74,14.88,14.73,.7,3.13,.67,6.44,.82,9.67,.02,.51-.72,1.51-1.13,1.52-4.71,.11-9.42,.07-14.6,.07Z"/>
  <path class="cls-1" d="M321.12,1.78h16.29V99.58c-5.32-.45-10.68-.9-16.29-1.37V1.78Z"/>
  <path class="cls-1" d="M239.88,89.22c-1.28-.18-2.62-.45-3.74-1.03-.46-.24-.85-1.69-.56-2.12,3.08-4.57,3.92-9.66,3.89-15.01-.04-7.88,0-15.76-.04-23.64-.03-9.04,.12-18.09-.21-27.12-.33-9.22-5.9-16.01-14.71-18.77-5.28-1.65-10.71-1.92-16.09-1-3.38,.58-6.89,1.51-9.85,3.17-7.4,4.13-9.84,11.18-9.88,19.21-.06,16.3-.11,32.61-.02,48.91,.07,12.74,6.32,19.98,18.89,22.16,5.85,1.02,11.69,1.01,17.39-.61,4.24,7.55,10.28,10.4,18.47,8.74v-12.85c-1.28,0-2.44,.13-3.56-.03Zm-17.01-18.76c0,.85,0,1.7-.05,2.55-.42,7.15-6.07,10.64-12.75,7.87-2.22-.92-3.72-2.55-4.26-4.87-.33-1.41-.49-2.9-.49-4.35-.03-16.3-.02-32.59-.02-48.89,0-.39,0-.77,.01-1.16,.24-5.55,3-8.35,8.33-8.48,5.64-.13,8.92,2.61,9.06,8.21,.21,8.72,.06,17.45,.06,26.18,.04,0,.08,0,.12,0,0,7.65,0,15.29,0,22.94Z"/>
</svg>