<?xml version="1.0" encoding="utf-8"?>
<!-- Generator: Adobe Illustrator 26.4.1, SVG Export Plug-In . SVG Version: 6.00 Build 0)  -->
<svg version="1.1" id="nesquick_xA0_Imagen_00000095306780870904544910000003613550337525457058_"
	 xmlns="http://www.w3.org/2000/svg" xmlns:xlink="http://www.w3.org/1999/xlink" x="0px" y="0px" viewBox="0 0 370.9 107.9"
	 style="enable-background:new 0 0 370.9 107.9;" xml:space="preserve">
<style type="text/css">
	.st0{fill:#D20000;}
</style>
<g>
	<path class="st0" d="M38.7,60.9c0-17.1,0-34.2,0-51.5c4.7,0,9.3,0,14.1,0c0,28.8,0,57.5,0,86.5c-2.5,0.3-5,0.7-7.5,1
		c-2.1,0.3-4.2,0.3-6.2,0.7c-1.4,0.2-1.9-0.3-2.3-1.5C31.7,81,26.6,66,21.6,50.9c-0.1-0.2-0.2-0.3-0.6-0.8c0,16.7,0,33.1,0,49.6
		c-4.8,0.7-9.4,1.3-14.1,2c0-30.8,0-61.5,0-92.4c4.3,0,8.6,0,13.1,0C26,26.5,32.1,43.7,38.2,61C38.3,61,38.5,60.9,38.7,60.9z"/>
	<path class="st0" d="M316.8,9.4c4.7,0,9.4,0,14.3,0c0,6.2,0,12.2,0,18.3c0,6,0,11.9,0,17.9c0.2,0,0.4,0.1,0.6,0.1
		c1.6-3,3.2-6,4.7-9.1c4.3-8.6,8.5-17.3,12.8-26c0.3-0.6,0.9-1.3,1.4-1.3c4.4-0.1,8.9-0.1,13.7-0.1c-1.9,3.7-3.6,7.1-5.4,10.5
		c-3.8,7.2-7.6,14.5-11.3,21.7c-0.4,0.7-0.4,1.8-0.1,2.6c5.5,18.6,11,37.2,16.5,55.9c0.2,0.6,0.3,1.1,0.4,1.9
		c-4.9-0.6-9.6-1.1-14.2-1.8c-0.5-0.1-1-1-1.2-1.6c-3.8-12.5-7.5-24.9-11.2-37.4c-0.2-0.6-0.4-1.2-0.9-1.9c-2,4.8-6.1,8.5-5.8,14.4
		c0.4,7.3,0.1,14.6,0.1,21.9c0,0.7,0,1.5,0,2.4c-4.9-0.6-9.6-1.3-14.5-1.9C316.8,67.2,316.8,38.4,316.8,9.4z"/>
	<path class="st0" d="M229,9.3c4.9,0,9.5,0,14.5,0c0,0.9,0,1.7,0,2.6c0,19.4,0,38.9,0.1,58.3c0,0.7,0,1.5,0,2.2
		c0.2,6.1,3.8,9.1,9.9,8c2.7-0.5,4.5-2.3,4.9-5.2c0.2-1.4,0.2-2.8,0.2-4.2c0-19.7-0.1-39.4-0.1-59.1c0-0.8,0-1.6,0-2.5
		c4.7,0,9.3,0,14,0c0,0.8,0,1.5,0,2.2c0,20,0.1,40.1,0.1,60.1c0,1.7-0.1,3.5-0.3,5.2c-1.2,8.9-6.9,14.3-15.8,15.1
		c-4.3,0.4-8.6,0.2-12.9-1.1c-8.8-2.5-14.2-9.2-14.4-18.4c-0.2-8.4-0.1-16.7-0.1-25.1c0-11.9,0-23.7,0-35.6
		C229,11.2,229,10.4,229,9.3z"/>
	<path class="st0" d="M66.9,9.3c13.2,0,26.2,0,39.3,0c0,4.8,0,9.4,0,14.3c-8.4,0-16.7,0-25.1,0c0,6.5,0,12.8,0,19.3
		c6.2,0,12.5,0,18.8,0c0,4.8,0,9.4,0,14.4c-6.2,0-12.5,0-18.9,0c0,7.4,0,14.5,0,21.8c8.4-0.5,16.6-1.1,25.2-1.6c0,2.8,0,5.4,0,8
		c0,1.4-0.1,2.8,0,4.2c0.1,1.3-0.3,1.8-1.7,1.9c-11.9,0.9-23.9,1.9-35.8,2.8c-0.6,0-1.2,0-2,0C66.9,66.2,66.9,37.8,66.9,9.3z"/>
	<path class="st0" d="M145.8,31.4c0-2,0.1-3.8,0-5.6c-0.4-4.3-2.9-6.5-7.3-6.5c-4.4,0-6.9,2.3-7.3,6.5c-0.4,4.2,0.8,8,3.8,10.9
		c3.2,3.1,6.8,5.8,10.1,8.8c3.3,2.9,6.8,5.7,9.5,9.1c6,7.5,6.6,16,3.5,24.9c-1.9,5.3-5.9,8.5-11.2,10.1c-5.6,1.7-11.3,2.1-17,1
		c-8-1.5-12.7-7.1-13.5-16.2c-0.2-2.3,0-4.7,0-7.5c4.5,0,9,0,13.7,0c0,1.7,0,3.6,0,5.4c0.1,4.8,2.4,7.2,6.8,7.3c5.2,0.1,8-2.3,8.3-7
		c0.4-4.9-1-9.3-4.6-12.7c-2.9-2.8-6.3-5.1-9.3-7.8c-3.4-3-6.9-5.9-9.7-9.4c-5.6-7-6.3-15.1-3.3-23.3c2.6-7.2,8.4-10.6,15.7-11.2
		c3.9-0.3,8-0.1,11.9,0.6c7.1,1.3,11.4,5.9,13,12.9c0.6,2.7,0.6,5.6,0.7,8.4c0,0.4-0.6,1.3-1,1.3C154.4,31.5,150.3,31.4,145.8,31.4z
		"/>
	<path class="st0" d="M287,9.4c4.7,0,9.3,0,14.2,0c0,28.4,0,56.7,0,85.3c-4.6-0.4-9.3-0.8-14.2-1.2C287,65.4,287,37.5,287,9.4z"/>
	<path class="st0" d="M216.1,85.7c-1.1-0.2-2.3-0.4-3.3-0.9c-0.4-0.2-0.7-1.5-0.5-1.8c2.7-4,3.4-8.4,3.4-13.1c0-6.9,0-13.8,0-20.6
		c0-7.9,0.1-15.8-0.2-23.7c-0.3-8-5.1-14-12.8-16.4c-4.6-1.4-9.3-1.7-14-0.9c-2.9,0.5-6,1.3-8.6,2.8c-6.5,3.6-8.6,9.8-8.6,16.8
		c-0.1,14.2-0.1,28.5,0,42.7c0.1,11.1,5.5,17.4,16.5,19.3c5.1,0.9,10.2,0.9,15.2-0.5c3.7,6.6,9,9.1,16.1,7.6c0-3.6,0-7.3,0-11.2
		C218.1,85.7,217.1,85.8,216.1,85.7z M201.3,69.3c0,0.7,0,1.5,0,2.2c-0.4,6.2-5.3,9.3-11.1,6.9c-1.9-0.8-3.2-2.2-3.7-4.3
		c-0.3-1.2-0.4-2.5-0.4-3.8c0-14.2,0-28.4,0-42.7c0-0.3,0-0.7,0-1c0.2-4.8,2.6-7.3,7.3-7.4c4.9-0.1,7.8,2.3,7.9,7.2
		c0.2,7.6,0,15.2,0,22.8c0,0,0.1,0,0.1,0C201.3,55.9,201.3,62.6,201.3,69.3z"/>
</g>
</svg>
